%TF.GenerationSoftware,KiCad,Pcbnew,7.0.11+dfsg-1build4*%
%TF.CreationDate,2024-07-18T16:06:06-06:00*%
%TF.ProjectId,doordinger,646f6f72-6469-46e6-9765-722e6b696361,2*%
%TF.SameCoordinates,Original*%
%TF.FileFunction,Copper,L2,Bot*%
%TF.FilePolarity,Positive*%
%FSLAX46Y46*%
G04 Gerber Fmt 4.6, Leading zero omitted, Abs format (unit mm)*
G04 Created by KiCad (PCBNEW 7.0.11+dfsg-1build4) date 2024-07-18 16:06:06*
%MOMM*%
%LPD*%
G01*
G04 APERTURE LIST*
G04 Aperture macros list*
%AMRoundRect*
0 Rectangle with rounded corners*
0 $1 Rounding radius*
0 $2 $3 $4 $5 $6 $7 $8 $9 X,Y pos of 4 corners*
0 Add a 4 corners polygon primitive as box body*
4,1,4,$2,$3,$4,$5,$6,$7,$8,$9,$2,$3,0*
0 Add four circle primitives for the rounded corners*
1,1,$1+$1,$2,$3*
1,1,$1+$1,$4,$5*
1,1,$1+$1,$6,$7*
1,1,$1+$1,$8,$9*
0 Add four rect primitives between the rounded corners*
20,1,$1+$1,$2,$3,$4,$5,0*
20,1,$1+$1,$4,$5,$6,$7,0*
20,1,$1+$1,$6,$7,$8,$9,0*
20,1,$1+$1,$8,$9,$2,$3,0*%
G04 Aperture macros list end*
%TA.AperFunction,ComponentPad*%
%ADD10R,1.600000X1.600000*%
%TD*%
%TA.AperFunction,ComponentPad*%
%ADD11C,1.600000*%
%TD*%
%TA.AperFunction,ComponentPad*%
%ADD12RoundRect,0.250000X-0.550000X-0.550000X0.550000X-0.550000X0.550000X0.550000X-0.550000X0.550000X0*%
%TD*%
%TA.AperFunction,ViaPad*%
%ADD13C,0.800000*%
%TD*%
%TA.AperFunction,Conductor*%
%ADD14C,0.250000*%
%TD*%
%TA.AperFunction,Conductor*%
%ADD15C,0.600000*%
%TD*%
%TA.AperFunction,Conductor*%
%ADD16C,0.500000*%
%TD*%
%TA.AperFunction,Conductor*%
%ADD17C,0.750000*%
%TD*%
G04 APERTURE END LIST*
D10*
%TO.P,C1,1*%
%TO.N,Net-(Q2-C)*%
X224028000Y-148876000D03*
D11*
%TO.P,C1,2*%
%TO.N,GND*%
X224028000Y-150876000D03*
%TD*%
D12*
%TO.P,LS1,1,1*%
%TO.N,Net-(Q1-C)*%
X223163000Y-135839000D03*
D11*
%TO.P,LS1,2,2*%
%TO.N,Net-(Q2-E)*%
X226763000Y-135839000D03*
%TD*%
D13*
%TO.N,Net-(U1A--)*%
X225043000Y-140559000D03*
X215548000Y-142748000D03*
%TO.N,Net-(U1B--)*%
X216329050Y-150954950D03*
X230123000Y-144609002D03*
%TO.N,Net-(Q1-B)*%
X222018000Y-138939000D03*
X237820000Y-153416000D03*
%TO.N,Net-(R3-Pad2)*%
X227072594Y-147097810D03*
X237963000Y-148179000D03*
X223520000Y-143256000D03*
%TO.N,Net-(U1B-+)*%
X215663000Y-141339000D03*
X218163000Y-153259000D03*
%TO.N,Net-(U1A-+)*%
X227109439Y-151508763D03*
X220134302Y-143813504D03*
%TO.N,GND*%
X227583000Y-160879000D03*
X231169353Y-153445353D03*
X218148000Y-146151892D03*
X219456000Y-159512000D03*
%TO.N,Net-(D8-K)*%
X219939347Y-148076998D03*
X219963000Y-156464000D03*
%TO.N,Net-(Q3-C)*%
X238210501Y-157946501D03*
X226163000Y-160739000D03*
%TD*%
D14*
%TO.N,Net-(U1A--)*%
X214938000Y-140494695D02*
X217863695Y-137569000D01*
X225043000Y-140018695D02*
X225043000Y-140559000D01*
X217863695Y-137569000D02*
X222593305Y-137569000D01*
X215548000Y-142748000D02*
X214938000Y-142138000D01*
X222593305Y-137569000D02*
X225043000Y-140018695D01*
X214938000Y-142138000D02*
X214938000Y-140494695D01*
%TO.N,Net-(U1B--)*%
X214488000Y-140308299D02*
X214488000Y-143064305D01*
X230123000Y-144609002D02*
X230123000Y-143691196D01*
X214488000Y-143064305D02*
X215247695Y-143824000D01*
X215548000Y-143824000D02*
X215548000Y-150173900D01*
X215247695Y-143824000D02*
X215548000Y-143824000D01*
X223550804Y-137119000D02*
X217677299Y-137119000D01*
X230123000Y-143691196D02*
X223550804Y-137119000D01*
X217677299Y-137119000D02*
X214488000Y-140308299D01*
X215548000Y-150173900D02*
X216329050Y-150954950D01*
%TO.N,Net-(Q1-B)*%
X237820000Y-153416000D02*
X237649052Y-153245052D01*
X222018000Y-143068521D02*
X222018000Y-138939000D01*
X232194531Y-153245052D02*
X222018000Y-143068521D01*
X237649052Y-153245052D02*
X232194531Y-153245052D01*
%TO.N,Net-(R3-Pad2)*%
X223520000Y-143545216D02*
X227072594Y-147097810D01*
X223520000Y-143256000D02*
X223520000Y-143545216D01*
X227072594Y-147097810D02*
X228153784Y-148179000D01*
X228153784Y-148179000D02*
X237963000Y-148179000D01*
%TO.N,Net-(U1B-+)*%
X218163000Y-153259000D02*
X217423000Y-152519000D01*
X217423000Y-143099000D02*
X217423000Y-152519000D01*
X215663000Y-141339000D02*
X217423000Y-143099000D01*
%TO.N,Net-(U1A-+)*%
X227109439Y-149415439D02*
X221507504Y-143813504D01*
X221507504Y-143813504D02*
X220134302Y-143813504D01*
X227109439Y-151508763D02*
X227109439Y-149415439D01*
D15*
%TO.N,GND*%
X220980000Y-151384000D02*
X221488000Y-150876000D01*
X218148000Y-146151892D02*
X219369830Y-147373722D01*
X219456000Y-159512000D02*
X220980000Y-161036000D01*
X227583000Y-160879000D02*
X226998000Y-161464000D01*
D16*
X221996000Y-161464000D02*
X222503000Y-161464000D01*
D15*
X220312140Y-147176998D02*
X220980000Y-147844858D01*
X221408000Y-161464000D02*
X221996000Y-161464000D01*
X225263000Y-159351706D02*
X231169353Y-153445353D01*
X220980000Y-161036000D02*
X221408000Y-161464000D01*
X225044000Y-161464000D02*
X221996000Y-161464000D01*
X225044000Y-161464000D02*
X225263000Y-161683000D01*
X220980000Y-147844858D02*
X220980000Y-149352000D01*
X220980000Y-149352000D02*
X220980000Y-151384000D01*
X226998000Y-161464000D02*
X225044000Y-161464000D01*
X221488000Y-150876000D02*
X224028000Y-150876000D01*
X219369830Y-147373722D02*
X219566554Y-147176998D01*
X220980000Y-151384000D02*
X220980000Y-161036000D01*
X219566554Y-147176998D02*
X220312140Y-147176998D01*
X225263000Y-161683000D02*
X225263000Y-159351706D01*
D14*
%TO.N,Net-(D8-K)*%
X219963000Y-148100651D02*
X219939347Y-148076998D01*
D17*
X219963000Y-156464000D02*
X219963000Y-148100651D01*
D14*
%TO.N,Net-(Q3-C)*%
X238210501Y-157946501D02*
X237818002Y-158339000D01*
X227928000Y-158974000D02*
X226163000Y-160739000D01*
X237818002Y-158339000D02*
X227928000Y-158339000D01*
X227928000Y-158339000D02*
X227928000Y-158974000D01*
%TD*%
M02*
