%TF.GenerationSoftware,KiCad,Pcbnew,7.0.11+dfsg-1build4*%
%TF.CreationDate,2024-07-18T16:06:06-06:00*%
%TF.ProjectId,doordinger,646f6f72-6469-46e6-9765-722e6b696361,2*%
%TF.SameCoordinates,Original*%
%TF.FileFunction,Soldermask,Top*%
%TF.FilePolarity,Negative*%
%FSLAX46Y46*%
G04 Gerber Fmt 4.6, Leading zero omitted, Abs format (unit mm)*
G04 Created by KiCad (PCBNEW 7.0.11+dfsg-1build4) date 2024-07-18 16:06:06*
%MOMM*%
%LPD*%
G01*
G04 APERTURE LIST*
G04 Aperture macros list*
%AMRoundRect*
0 Rectangle with rounded corners*
0 $1 Rounding radius*
0 $2 $3 $4 $5 $6 $7 $8 $9 X,Y pos of 4 corners*
0 Add a 4 corners polygon primitive as box body*
4,1,4,$2,$3,$4,$5,$6,$7,$8,$9,$2,$3,0*
0 Add four circle primitives for the rounded corners*
1,1,$1+$1,$2,$3*
1,1,$1+$1,$4,$5*
1,1,$1+$1,$6,$7*
1,1,$1+$1,$8,$9*
0 Add four rect primitives between the rounded corners*
20,1,$1+$1,$2,$3,$4,$5,0*
20,1,$1+$1,$4,$5,$6,$7,0*
20,1,$1+$1,$6,$7,$8,$9,0*
20,1,$1+$1,$8,$9,$2,$3,0*%
G04 Aperture macros list end*
%ADD10R,1.600000X1.600000*%
%ADD11C,1.600000*%
%ADD12RoundRect,0.102000X-0.530000X-0.910000X0.530000X-0.910000X0.530000X0.910000X-0.530000X0.910000X0*%
%ADD13RoundRect,0.102000X-0.480000X-0.690000X0.480000X-0.690000X0.480000X0.690000X-0.480000X0.690000X0*%
%ADD14RoundRect,0.102000X-0.690000X0.480000X-0.690000X-0.480000X0.690000X-0.480000X0.690000X0.480000X0*%
%ADD15RoundRect,0.102000X-0.270000X-0.300000X0.270000X-0.300000X0.270000X0.300000X-0.270000X0.300000X0*%
%ADD16R,1.981200X0.558800*%
%ADD17R,1.500000X1.500000*%
%ADD18RoundRect,0.250000X-0.550000X-0.550000X0.550000X-0.550000X0.550000X0.550000X-0.550000X0.550000X0*%
%ADD19R,0.406400X0.863600*%
%ADD20RoundRect,0.102000X-0.435000X-0.465000X0.435000X-0.465000X0.435000X0.465000X-0.435000X0.465000X0*%
%ADD21RoundRect,0.102000X-0.440000X0.545000X-0.440000X-0.545000X0.440000X-0.545000X0.440000X0.545000X0*%
%ADD22RoundRect,0.102000X-0.490000X0.895000X-0.490000X-0.895000X0.490000X-0.895000X0.490000X0.895000X0*%
%ADD23RoundRect,0.102000X0.430000X0.490000X-0.430000X0.490000X-0.430000X-0.490000X0.430000X-0.490000X0*%
%ADD24RoundRect,0.102000X-0.450000X0.325000X-0.450000X-0.325000X0.450000X-0.325000X0.450000X0.325000X0*%
%ADD25R,0.254000X0.508000*%
%ADD26R,0.863600X0.406400*%
%ADD27RoundRect,0.102000X0.530000X0.910000X-0.530000X0.910000X-0.530000X-0.910000X0.530000X-0.910000X0*%
%ADD28RoundRect,0.102000X0.465000X-0.435000X0.465000X0.435000X-0.465000X0.435000X-0.465000X-0.435000X0*%
%ADD29RoundRect,0.102000X0.480000X0.690000X-0.480000X0.690000X-0.480000X-0.690000X0.480000X-0.690000X0*%
%ADD30RoundRect,0.102000X-0.325000X-0.450000X0.325000X-0.450000X0.325000X0.450000X-0.325000X0.450000X0*%
%ADD31RoundRect,0.102000X0.690000X-0.480000X0.690000X0.480000X-0.690000X0.480000X-0.690000X-0.480000X0*%
%ADD32R,0.838200X0.609600*%
%ADD33R,0.965200X1.752600*%
%ADD34RoundRect,0.099250X0.297750X-0.662750X0.297750X0.662750X-0.297750X0.662750X-0.297750X-0.662750X0*%
%ADD35R,0.406400X0.838200*%
%ADD36RoundRect,0.099250X-0.297750X0.662750X-0.297750X-0.662750X0.297750X-0.662750X0.297750X0.662750X0*%
%ADD37R,0.609600X1.295400*%
%ADD38RoundRect,0.102000X0.435000X0.465000X-0.435000X0.465000X-0.435000X-0.465000X0.435000X-0.465000X0*%
%ADD39RoundRect,0.102000X0.545000X0.440000X-0.545000X0.440000X-0.545000X-0.440000X0.545000X-0.440000X0*%
%ADD40RoundRect,0.102000X0.895000X0.490000X-0.895000X0.490000X-0.895000X-0.490000X0.895000X-0.490000X0*%
%ADD41RoundRect,0.102000X-0.465000X0.445000X-0.465000X-0.445000X0.465000X-0.445000X0.465000X0.445000X0*%
%ADD42R,1.295400X0.609600*%
%ADD43RoundRect,0.102000X0.440000X-0.545000X0.440000X0.545000X-0.440000X0.545000X-0.440000X-0.545000X0*%
%ADD44RoundRect,0.102000X0.490000X-0.895000X0.490000X0.895000X-0.490000X0.895000X-0.490000X-0.895000X0*%
%ADD45R,1.752600X0.965200*%
%ADD46R,0.609600X0.838200*%
%ADD47RoundRect,0.102000X-0.465000X0.435000X-0.465000X-0.435000X0.465000X-0.435000X0.465000X0.435000X0*%
G04 APERTURE END LIST*
D10*
%TO.C,C1*%
X224028000Y-148876000D03*
D11*
X224028000Y-150876000D03*
%TD*%
D12*
%TO.C,R23*%
X232235000Y-143099000D03*
X235291000Y-143099000D03*
%TD*%
D13*
%TO.C,R17*%
X215985000Y-144639000D03*
X217941000Y-144639000D03*
%TD*%
D14*
%TO.C,R24*%
X225363000Y-153361000D03*
X225363000Y-155317000D03*
%TD*%
D15*
%TO.C,C5*%
X236231000Y-152439000D03*
X237095000Y-152439000D03*
%TD*%
D16*
%TO.C,U1*%
X228699200Y-147829000D03*
X228699200Y-149099000D03*
X228699200Y-150369000D03*
X228699200Y-151639000D03*
X228699200Y-152909000D03*
X228699200Y-154179000D03*
X228699200Y-155449000D03*
X233626800Y-155449000D03*
X233626800Y-154179000D03*
X233626800Y-152909000D03*
X233626800Y-151639000D03*
X233626800Y-150369000D03*
X233626800Y-149099000D03*
X233626800Y-147829000D03*
%TD*%
D17*
%TO.C,TP9*%
X236663000Y-162419000D03*
%TD*%
D18*
%TO.C,LS1*%
X223163000Y-135839000D03*
D11*
X226763000Y-135839000D03*
%TD*%
D14*
%TO.C,R16*%
X219963000Y-151303000D03*
X219963000Y-153259000D03*
%TD*%
D19*
%TO.C,D9*%
X223163000Y-155418000D03*
X223163000Y-153259000D03*
%TD*%
D20*
%TO.C,R9*%
X215583000Y-153639000D03*
X217143000Y-153639000D03*
%TD*%
D21*
%TO.C,D1*%
X233663000Y-159354000D03*
D22*
X233663000Y-157674000D03*
%TD*%
D23*
%TO.C,R6*%
X218728000Y-141339000D03*
X217198000Y-141339000D03*
%TD*%
D24*
%TO.C,R1*%
X238663000Y-153914000D03*
X238663000Y-155364000D03*
%TD*%
D25*
%TO.C,C3*%
X216709100Y-151839000D03*
X215616900Y-151839000D03*
%TD*%
D26*
%TO.C,D8*%
X222242500Y-142839000D03*
X220083500Y-142839000D03*
%TD*%
D12*
%TO.C,R27*%
X231135000Y-140559000D03*
X234191000Y-140559000D03*
%TD*%
D17*
%TO.C,TP5*%
X224663000Y-162419000D03*
%TD*%
D27*
%TO.C,R5*%
X219091000Y-139139000D03*
X216035000Y-139139000D03*
%TD*%
D21*
%TO.C,D5*%
X239663000Y-159354000D03*
D22*
X239663000Y-157674000D03*
%TD*%
D28*
%TO.C,R10*%
X236663000Y-155419000D03*
X236663000Y-153859000D03*
%TD*%
%TO.C,R7*%
X215663000Y-159369000D03*
X215663000Y-157809000D03*
%TD*%
D17*
%TO.C,TP6*%
X218663000Y-162419000D03*
%TD*%
D29*
%TO.C,R14*%
X222141000Y-145139000D03*
X220185000Y-145139000D03*
%TD*%
D30*
%TO.C,R25*%
X235938000Y-140439000D03*
X237388000Y-140439000D03*
%TD*%
D31*
%TO.C,RA1*%
X221525000Y-159317000D03*
X221525000Y-157361000D03*
%TD*%
D13*
%TO.C,R22*%
X232185000Y-145839000D03*
X234141000Y-145839000D03*
%TD*%
D32*
%TO.C,R11*%
X239063000Y-144541300D03*
X239063000Y-145836700D03*
%TD*%
D33*
%TO.C,C6*%
X235591400Y-138019000D03*
X238334600Y-138019000D03*
%TD*%
D13*
%TO.C,R4*%
X228167000Y-145839000D03*
X230123000Y-145839000D03*
%TD*%
D34*
%TO.C,Q3*%
X226633000Y-159354000D03*
X228533000Y-159354000D03*
X227583000Y-157324000D03*
%TD*%
D35*
%TO.C,Q4*%
X238441500Y-141899200D03*
X237044500Y-141899200D03*
X237743000Y-143778800D03*
%TD*%
D36*
%TO.C,Q1*%
X222913000Y-138529000D03*
X221013000Y-138529000D03*
X221963000Y-140559000D03*
%TD*%
D37*
%TO.C,R26*%
X231762300Y-138019000D03*
X233565700Y-138019000D03*
%TD*%
D38*
%TO.C,R8*%
X217143000Y-155549000D03*
X215583000Y-155549000D03*
%TD*%
D39*
%TO.C,D3*%
X224028000Y-145839000D03*
D40*
X225708000Y-145839000D03*
%TD*%
D34*
%TO.C,Q2*%
X227213000Y-140559000D03*
X229113000Y-140559000D03*
X228163000Y-138529000D03*
%TD*%
D21*
%TO.C,D6*%
X217663000Y-159354000D03*
D22*
X217663000Y-157674000D03*
%TD*%
D17*
%TO.C,TP7*%
X221663000Y-162419000D03*
%TD*%
D28*
%TO.C,R3*%
X238963000Y-149019000D03*
X238963000Y-147459000D03*
%TD*%
D41*
%TO.C,C4*%
X238663000Y-150719000D03*
X238663000Y-152259000D03*
%TD*%
D42*
%TO.C,R21*%
X236663000Y-149437300D03*
X236663000Y-151240700D03*
%TD*%
D17*
%TO.C,TP1*%
X239663000Y-162419000D03*
%TD*%
D21*
%TO.C,D7*%
X224663000Y-159354000D03*
D22*
X224663000Y-157674000D03*
%TD*%
D43*
%TO.C,D2*%
X236728000Y-157324000D03*
D44*
X236728000Y-159004000D03*
%TD*%
D17*
%TO.C,TP3*%
X215663000Y-162419000D03*
%TD*%
D14*
%TO.C,R15*%
X224863000Y-141861000D03*
X224863000Y-143817000D03*
%TD*%
D45*
%TO.C,C2*%
X216163000Y-146967400D03*
X216163000Y-149710600D03*
%TD*%
D46*
%TO.C,R18*%
X218310700Y-142939000D03*
X217015300Y-142939000D03*
%TD*%
D47*
%TO.C,R20*%
X236663000Y-146359000D03*
X236663000Y-147919000D03*
%TD*%
D17*
%TO.C,TP4*%
X227663000Y-162419000D03*
%TD*%
%TO.C,TP2*%
X230663000Y-162419000D03*
%TD*%
D14*
%TO.C,R12*%
X219963000Y-147201000D03*
X219963000Y-149157000D03*
%TD*%
D39*
%TO.C,DA1*%
X218948000Y-155339000D03*
D40*
X220628000Y-155339000D03*
%TD*%
D17*
%TO.C,TP8*%
X233663000Y-162419000D03*
%TD*%
D32*
%TO.C,R13*%
X218163000Y-151366700D03*
X218163000Y-150071300D03*
%TD*%
D27*
%TO.C,R2*%
X229991000Y-143099000D03*
X226935000Y-143099000D03*
%TD*%
D21*
%TO.C,D4*%
X230663000Y-159354000D03*
D22*
X230663000Y-157674000D03*
%TD*%
M02*
