M48
; DRILL file {KiCad 7.0.11+dfsg-1build4} date Thu 18 Jul 2024 04:06:04 PM MDT
; FORMAT={-:-/ absolute / inch / decimal}
; #@! TF.CreationDate,2024-07-18T16:06:04-06:00
; #@! TF.GenerationSoftware,Kicad,Pcbnew,7.0.11+dfsg-1build4
; #@! TF.FileFunction,Plated,1,2,PTH
FMAT,2
INCH
; #@! TA.AperFunction,Plated,PTH,ViaDrill
T1C0.0157
; #@! TA.AperFunction,Plated,PTH,ComponentDrill
T2C0.0236
; #@! TA.AperFunction,Plated,PTH,ComponentDrill
T3C0.0315
%
G90
G05
T1
X8.4861Y-5.62
X8.4907Y-5.5645
X8.5169Y-5.9431
X8.5885Y-5.754
X8.5891Y-6.0338
X8.64Y-6.28
X8.659Y-5.8298
X8.66Y-6.16
X8.6667Y-5.6619
X8.7409Y-5.47
X8.8Y-5.64
X8.86Y-5.5338
X8.9041Y-6.3283
X8.9399Y-5.7913
X8.9413Y-5.9649
X8.96Y-6.3338
X9.06Y-5.6933
X9.1012Y-6.0412
X9.363Y-6.04
X9.3686Y-5.8338
X9.3784Y-6.2184
T2
X8.7859Y-5.348
X8.9277Y-5.348
T3
X8.82Y-5.8613
X8.82Y-5.94
M30
